{"title":"Jesse Stone, No Remorse 2010 DVDrip English Klam","uid":5988002,"size":1451647762,"categoryP":"video","categoryS":"movies","magnet":"?xt=urn:btih:70ff547dc45b1d7cffa723cb5506c9e9e411eaf4&amp;dn=Jesse+Stone%2C+No+Remorse+2010+DVDrip+English+Klam&amp;tr=udp%3A%2F%2Ftracker.openbittorrent.com%3A80&amp;tr=udp%3A%2F%2Fopen.demonii.com%3A1337&amp;tr=udp%3A%2F%2Ftracker.coppersurfer.tk%3A6969&amp;tr=udp%3A%2F%2Fexodus.desync.com%3A6969","seeders":0,"leechers":0,"uploader":"Klambake","files":3,"time":1290802350,"description":"[rimg]http://img819.imageshack.us/img819/3264/noremorseh.jpg[/rimg]\n\nWith: Tom Selleck, Kathy Baker and Kohl Sudduth\n\nPolice Chief Jesse Stone, who was suspended by the Paradise, Mass. Town Council, begins moonlighting for his friend, State Homicide Commander Healy, by investigating a series of murders in Boston, leaving Rose and Suitcase to handle a crime spree in Paradise on their own. Jesse pours his energy into his work in an effort to push away his twin demons: booze and women. When his investigation leads to notorious mob boss Gino Fish, Jesse's pursuit becomes hazardous\n\nGeneral:\n\nComplete name                    : Jesse Stone\\No Remorse.avi\nFormat                           : AVI\nFormat/Info                      : Audio Video Interleave\nFile size                        : 1.35 GiB\nDuration                         : 1h 27mn\nOverall bit rate                 : 2 214 Kbps\n\nVideo:\n\nFormat                           : MPEG-4 Visual\nFormat profile                   : Simple@L3\nFormat settings, BVOP            : No\nFormat settings, QPel            : No\nFormat settings, GMC             : No warppoints\nFormat settings, Matrix          : Default (H.263)\nCodec ID                         : XVID\nCodec ID/Hint                    : XviD\nDuration                         : 1h 27mn\nBit rate                         : 1 755 Kbps\nWidth                            : 720 pixels\nHeight                           : 576 pixels\nDisplay aspect ratio             : 5:4\nFrame rate                       : 23.976 fps\nStandard                         : PAL\nColor space                      : YUV\nChroma subsampling               : 4:2:0\nBit depth                        : 8 bits\nScan type                        : Progressive\nBits/(Pixel*Frame)               : 0.177\nStream size                      : 1.07 GiB (79%)\nWriting library                  : XviD 1.1.2 (UTC 2006-11-01)\n\nAudio:\n\nFormat                           : AC-3\nFormat/Info                      : Audio Coding 3\nMode extension                   : CM (complete main)\nCodec ID                         : 2000\nDuration                         : 1h 27mn\nBit rate mode                    : Constant\nBit rate                         : 448 Kbps\nChannel(s)                       : 6 channels\nChannel positions                : Front: L C R, Side: L R, LFE\nSampling rate                    : 48.0 KHz\nBit depth                        : 16 bits\nStream size                      : 280 MiB (20%)\nAlignment                        : Aligned on interleaves\nInterleave, duration             : 32 ms (0.77 video frame)\nInterleave, preload duration     : 768 ms\n","torrent":{"xt":"urn:btih:70ff547dc45b1d7cffa723cb5506c9e9e411eaf4","amp;dn":"Jesse+Stone%2C+No+Remorse+2010+DVDrip+English+Klam","amp;tr":["udp%3A%2F%2Ftracker.openbittorrent.com%3A80","udp%3A%2F%2Fopen.demonii.com%3A1337","udp%3A%2F%2Ftracker.coppersurfer.tk%3A6969","udp%3A%2F%2Fexodus.desync.com%3A6969"],"infoHash":"70ff547dc45b1d7cffa723cb5506c9e9e411eaf4","infoHashBuffer":{"type":"Buffer","data":[112,255,84,125,196,91,29,124,255,167,35,203,85,6,201,233,228,17,234,244]},"announce":[],"urlList":[]}}